<mxfile host="65bd71144e">
    <diagram id="83y0MOkiJkxG6SyOIDsj" name="Page-1">
        <mxGraphModel dx="749" dy="533" grid="1" gridSize="8" guides="1" tooltips="1" connect="1" arrows="1" fold="1" page="1" pageScale="1" pageWidth="1169" pageHeight="827" background="#ffffff" math="0" shadow="0">
            <root>
                <MiscDiagram modelType="MiscDiagram" lastModifiedUserId="dbush@ibm.com" description="" lastModified="2022-01-26T00:01:51Z" _id="miscdiagram_SykydLGtF" label="CP4BA Operators" id="0">
                    <mxCell/>
                </MiscDiagram>
                <mxCell id="1" parent="0"/>
                <UserObject placeholders="1" label="&lt;span style=&quot;font-family: &amp;#34;ibm plex sans&amp;#34;&quot;&gt;OpenShift 4.7-4.8 Cluster&lt;/span&gt;" Icon-Name="logo--openshift" id="miscdiagram_SykydLGtF_23dyQYPbPqtd">
                    <mxCell style="shape=mxgraph.ibm2mondrian.base;shapeType=pg;shapeLayout=expanded;colorFamily=green;colorBackground=noColor:noColor;strokeWidth=1;html=1;whiteSpace=wrap;metaEdit=1;collapsible=0;recursiveResize=0;expand=0;fontFamily=IBM Plex Sans SmBld;fontColor=#000000;fontSize=14;image=;verticalAlign=top;align=left;spacing=0;spacingLeft=16;spacingRight=16;spacingTop=0;spacingBottom=0;container=1" parent="1" vertex="1">
                        <mxGeometry x="16" y="16" width="688" height="624" as="geometry"/>
                    </mxCell>
                </UserObject>
                <UserObject placeholders="1" label="openshift-operators Namespace" Icon-Name="border--none" id="miscdiagram_SykydLGtF_33dyQYPbRZ32">
                    <mxCell style="shape=mxgraph.ibm2mondrian.base;shapeType=lg;shapeLayout=expanded;colorFamily=green;colorBackground=noColor:noColor;html=1;whiteSpace=wrap;metaEdit=1;strokeWidth=1;collapsible=0;recursiveResize=0;expand=0;fontFamily=IBM Plex Sans;fontColor=#000000;fontSize=14;image=;verticalAlign=top;align=left;spacing=0;spacingLeft=12;spacingRight=16;spacingTop=0;spacingBottom=0;container=1" parent="miscdiagram_SykydLGtF_23dyQYPbPqtd" vertex="1">
                        <mxGeometry x="16" y="48" width="224" height="560" as="geometry"/>
                    </mxCell>
                </UserObject>
                <UserObject placeholders="1" label="IBM Db2" Icon-Name="cube" _id="userobject_3666Oknkavl" id="miscdiagram_SykydLGtF_43dyQYPbBDBc">
                    <mxCell style="shape=mxgraph.ibm2mondrian.base;shapeType=lg;shapeLayout=expanded;colorFamily=green;colorBackground=noColor:noColor;html=1;whiteSpace=wrap;metaEdit=1;strokeWidth=1;collapsible=0;recursiveResize=0;expand=0;fontFamily=IBM Plex Sans;fontColor=#000000;fontSize=14;image=;verticalAlign=middle;align=left;spacing=0;spacingLeft=12;spacingRight=16;spacingTop=0;spacingBottom=0;container=1" parent="miscdiagram_SykydLGtF_33dyQYPbRZ32" vertex="1">
                        <mxGeometry x="24" y="48" width="172" height="64" as="geometry"/>
                    </mxCell>
                </UserObject>
                <UserObject placeholders="1" label="IBM Automation Foundation Core" Icon-Name="cube" _id="userobject_3667dpUiJf2" id="miscdiagram_SykydLGtF_53dyQYPbdy4U">
                    <mxCell style="shape=mxgraph.ibm2mondrian.base;shapeType=lg;shapeLayout=expanded;colorFamily=green;colorBackground=noColor:noColor;html=1;whiteSpace=wrap;metaEdit=1;strokeWidth=1;collapsible=0;recursiveResize=0;expand=0;fontFamily=IBM Plex Sans;fontColor=#000000;fontSize=14;image=;verticalAlign=middle;align=left;spacing=0;spacingLeft=12;spacingRight=16;spacingTop=0;spacingBottom=0;container=1" parent="miscdiagram_SykydLGtF_33dyQYPbRZ32" vertex="1">
                        <mxGeometry x="24" y="120" width="172" height="64" as="geometry"/>
                    </mxCell>
                </UserObject>
                <UserObject placeholders="1" label="IBM Automation Foundation" Icon-Name="cube" _id="userobject_3667mdD737Q" id="miscdiagram_SykydLGtF_63dyQYPbAscZ">
                    <mxCell style="shape=mxgraph.ibm2mondrian.base;shapeType=lg;shapeLayout=expanded;colorFamily=green;colorBackground=noColor:noColor;html=1;whiteSpace=wrap;metaEdit=1;strokeWidth=1;collapsible=0;recursiveResize=0;expand=0;fontFamily=IBM Plex Sans;fontColor=#000000;fontSize=14;image=;verticalAlign=middle;align=left;spacing=0;spacingLeft=12;spacingRight=16;spacingTop=0;spacingBottom=0;container=1" parent="miscdiagram_SykydLGtF_33dyQYPbRZ32" vertex="1">
                        <mxGeometry x="24" y="264" width="172" height="64" as="geometry"/>
                    </mxCell>
                </UserObject>
                <UserObject placeholders="1" label="IBM Cloud Pak foundational services" Icon-Name="cube" _id="userobject_36OWko64QQ0" id="miscdiagram_SykydLGtF_73dyQYPb4JDY">
                    <mxCell style="shape=mxgraph.ibm2mondrian.base;shapeType=lg;shapeLayout=expanded;colorFamily=green;colorBackground=noColor:noColor;html=1;whiteSpace=wrap;metaEdit=1;strokeWidth=1;collapsible=0;recursiveResize=0;expand=0;fontFamily=IBM Plex Sans;fontColor=#000000;fontSize=14;image=;verticalAlign=middle;align=left;spacing=0;spacingLeft=12;spacingRight=16;spacingTop=0;spacingBottom=0;container=1" parent="miscdiagram_SykydLGtF_33dyQYPbRZ32" vertex="1">
                        <mxGeometry x="24" y="336" width="172" height="64" as="geometry"/>
                    </mxCell>
                </UserObject>
                <UserObject placeholders="1" label="IBM CloudPak for Business Automation" Icon-Name="cube" _id="userobject_3667Aq2Y8bL" id="miscdiagram_SykydLGtF_83dyQYPbUj43">
                    <mxCell style="shape=mxgraph.ibm2mondrian.base;shapeType=lg;shapeLayout=expanded;colorFamily=green;colorBackground=noColor:noColor;html=1;whiteSpace=wrap;metaEdit=1;strokeWidth=1;collapsible=0;recursiveResize=0;expand=0;fontFamily=IBM Plex Sans;fontColor=#000000;fontSize=14;image=;verticalAlign=middle;align=left;spacing=0;spacingLeft=12;spacingRight=16;spacingTop=0;spacingBottom=0;container=1" parent="miscdiagram_SykydLGtF_33dyQYPbRZ32" vertex="1">
                        <mxGeometry x="26" y="408" width="172" height="64" as="geometry"/>
                    </mxCell>
                </UserObject>
                <UserObject placeholders="1" label="IBM Automation Foundation Insights Engine" Icon-Name="cube" _id="userobject_3al9FyOdCgo" id="miscdiagram_SykydLGtF_93dyQYPbPFQu">
                    <mxCell style="shape=mxgraph.ibm2mondrian.base;shapeType=lg;shapeLayout=expanded;colorFamily=green;colorBackground=noColor:noColor;html=1;whiteSpace=wrap;metaEdit=1;strokeWidth=1;collapsible=0;recursiveResize=0;expand=0;fontFamily=IBM Plex Sans;fontColor=#000000;fontSize=14;image=;verticalAlign=middle;align=left;spacing=0;spacingLeft=12;spacingRight=16;spacingTop=0;spacingBottom=0;container=1" parent="miscdiagram_SykydLGtF_33dyQYPbRZ32" vertex="1">
                        <mxGeometry x="26" y="192" width="172" height="64" as="geometry"/>
                    </mxCell>
                </UserObject>
                <UserObject placeholders="1" label="Workflow Process Service" Icon-Name="cube" _id="userobject_3ala3IGuZMp" id="miscdiagram_SykydLGtF_103dyQYPbFXi4">
                    <mxCell style="shape=mxgraph.ibm2mondrian.base;shapeType=lg;shapeLayout=expanded;colorFamily=green;colorBackground=noColor:noColor;html=1;whiteSpace=wrap;metaEdit=1;strokeWidth=1;collapsible=0;recursiveResize=0;expand=0;fontFamily=IBM Plex Sans;fontColor=#000000;fontSize=14;image=;verticalAlign=middle;align=left;spacing=0;spacingLeft=12;spacingRight=16;spacingTop=0;spacingBottom=0;container=1" parent="miscdiagram_SykydLGtF_33dyQYPbRZ32" vertex="1">
                        <mxGeometry x="26" y="480" width="172" height="64" as="geometry"/>
                    </mxCell>
                </UserObject>
                <UserObject placeholders="1" label="ibm-common-services Namespace" Icon-Name="border--none" _id="userobject_388R2PyyBxP" id="miscdiagram_SykydLGtF_113dyQYPbHiLp">
                    <mxCell style="shape=mxgraph.ibm2mondrian.base;shapeType=lg;shapeLayout=expanded;colorFamily=green;colorBackground=noColor:noColor;html=1;whiteSpace=wrap;metaEdit=1;strokeWidth=1;collapsible=0;recursiveResize=0;expand=0;fontFamily=IBM Plex Sans;fontColor=#000000;fontSize=14;image=;verticalAlign=top;align=left;spacing=0;spacingLeft=12;spacingRight=16;spacingTop=0;spacingBottom=0;container=1" parent="miscdiagram_SykydLGtF_23dyQYPbPqtd" vertex="1">
                        <mxGeometry x="256" y="48" width="416" height="560" as="geometry"/>
                    </mxCell>
                </UserObject>
                <UserObject placeholders="1" label="IBM Cert Manager" Icon-Name="cube" _id="userobject_388R2PyJ1hd" id="miscdiagram_SykydLGtF_123dyQYPb0PjZ">
                    <mxCell style="shape=mxgraph.ibm2mondrian.base;shapeType=lg;shapeLayout=expanded;colorFamily=green;colorBackground=noColor:noColor;html=1;whiteSpace=wrap;metaEdit=1;strokeWidth=1;collapsible=0;recursiveResize=0;expand=0;fontFamily=IBM Plex Sans;fontColor=#000000;fontSize=14;image=;verticalAlign=middle;align=left;spacing=0;spacingLeft=12;spacingRight=16;spacingTop=0;spacingBottom=0;container=1" parent="miscdiagram_SykydLGtF_113dyQYPbHiLp" vertex="1">
                        <mxGeometry x="24" y="48" width="184" height="64" as="geometry"/>
                    </mxCell>
                </UserObject>
                <UserObject placeholders="1" label="IBM Licensing Operator" Icon-Name="cube" _id="userobject_388R2PyWB7r" id="miscdiagram_SykydLGtF_133dyQYPbH4CV">
                    <mxCell style="shape=mxgraph.ibm2mondrian.base;shapeType=lg;shapeLayout=expanded;colorFamily=green;colorBackground=noColor:noColor;html=1;whiteSpace=wrap;metaEdit=1;strokeWidth=1;collapsible=0;recursiveResize=0;expand=0;fontFamily=IBM Plex Sans;fontColor=#000000;fontSize=14;image=;verticalAlign=middle;align=left;spacing=0;spacingLeft=12;spacingRight=16;spacingTop=0;spacingBottom=0;container=1" parent="miscdiagram_SykydLGtF_113dyQYPbHiLp" vertex="1">
                        <mxGeometry x="216" y="120" width="184" height="64" as="geometry"/>
                    </mxCell>
                </UserObject>
                <UserObject placeholders="1" label="IBM Ingress Nginx Operator" Icon-Name="cube" _id="userobject_388R2PzfsMX" id="miscdiagram_SykydLGtF_143dyQYPb5If0">
                    <mxCell style="shape=mxgraph.ibm2mondrian.base;shapeType=lg;shapeLayout=expanded;colorFamily=green;colorBackground=noColor:noColor;html=1;whiteSpace=wrap;metaEdit=1;strokeWidth=1;collapsible=0;recursiveResize=0;expand=0;fontFamily=IBM Plex Sans;fontColor=#000000;fontSize=14;image=;verticalAlign=middle;align=left;spacing=0;spacingLeft=12;spacingRight=16;spacingTop=0;spacingBottom=0;container=1" parent="miscdiagram_SykydLGtF_113dyQYPbHiLp" vertex="1">
                        <mxGeometry x="216" y="48" width="184" height="64" as="geometry"/>
                    </mxCell>
                </UserObject>
                <UserObject placeholders="1" label="Management Ingress Operator" Icon-Name="cube" _id="userobject_388RBWpkaOH" id="miscdiagram_SykydLGtF_153dyQYPb2ubt">
                    <mxCell style="shape=mxgraph.ibm2mondrian.base;shapeType=lg;shapeLayout=expanded;colorFamily=green;colorBackground=noColor:noColor;html=1;whiteSpace=wrap;metaEdit=1;strokeWidth=1;collapsible=0;recursiveResize=0;expand=0;fontFamily=IBM Plex Sans;fontColor=#000000;fontSize=14;image=;verticalAlign=middle;align=left;spacing=0;spacingLeft=12;spacingRight=16;spacingTop=0;spacingBottom=0;container=1" parent="miscdiagram_SykydLGtF_113dyQYPbHiLp" vertex="1">
                        <mxGeometry x="24" y="192" width="184" height="64" as="geometry"/>
                    </mxCell>
                </UserObject>
                <UserObject placeholders="1" label="IBM NamespaceScope Operator" Icon-Name="cube" _id="userobject_388RE8OeqbW" id="miscdiagram_SykydLGtF_163dyQYPb3tT2">
                    <mxCell style="shape=mxgraph.ibm2mondrian.base;shapeType=lg;shapeLayout=expanded;colorFamily=green;colorBackground=noColor:noColor;html=1;whiteSpace=wrap;metaEdit=1;strokeWidth=1;collapsible=0;recursiveResize=0;expand=0;fontFamily=IBM Plex Sans;fontColor=#000000;fontSize=14;image=;verticalAlign=middle;align=left;spacing=0;spacingLeft=12;spacingRight=16;spacingTop=0;spacingBottom=0;container=1" parent="miscdiagram_SykydLGtF_113dyQYPbHiLp" vertex="1">
                        <mxGeometry x="216" y="192" width="184" height="64" as="geometry"/>
                    </mxCell>
                </UserObject>
                <UserObject placeholders="1" label="IBM Platform API" Icon-Name="cube" _id="userobject_388RGkicwOs" id="miscdiagram_SykydLGtF_173dyQYPbhHBo">
                    <mxCell style="shape=mxgraph.ibm2mondrian.base;shapeType=lg;shapeLayout=expanded;colorFamily=green;colorBackground=noColor:noColor;html=1;whiteSpace=wrap;metaEdit=1;strokeWidth=1;collapsible=0;recursiveResize=0;expand=0;fontFamily=IBM Plex Sans;fontColor=#000000;fontSize=14;image=;verticalAlign=middle;align=left;spacing=0;spacingLeft=12;spacingRight=16;spacingTop=0;spacingBottom=0;container=1" parent="miscdiagram_SykydLGtF_113dyQYPbHiLp" vertex="1">
                        <mxGeometry x="24" y="262" width="184" height="64" as="geometry"/>
                    </mxCell>
                </UserObject>
                <UserObject placeholders="1" label="Operand Deployment Lifecycle Manager" Icon-Name="cube" _id="userobject_388RXMCWQQA" id="miscdiagram_SykydLGtF_183dyQYPbwJmy">
                    <mxCell style="shape=mxgraph.ibm2mondrian.base;shapeType=lg;shapeLayout=expanded;colorFamily=green;colorBackground=noColor:noColor;html=1;whiteSpace=wrap;metaEdit=1;strokeWidth=1;collapsible=0;recursiveResize=0;expand=0;fontFamily=IBM Plex Sans;fontColor=#000000;fontSize=14;image=;verticalAlign=middle;align=left;spacing=0;spacingLeft=12;spacingRight=16;spacingTop=0;spacingBottom=0;container=1" parent="miscdiagram_SykydLGtF_113dyQYPbHiLp" vertex="1">
                        <mxGeometry x="24" y="336" width="184" height="64" as="geometry"/>
                    </mxCell>
                </UserObject>
                <UserObject placeholders="1" label="IBM Zen Service" Icon-Name="cube" _id="userobject_388RXe6LIe6" id="miscdiagram_SykydLGtF_193dyQYPb131R">
                    <mxCell style="shape=mxgraph.ibm2mondrian.base;shapeType=lg;shapeLayout=expanded;colorFamily=green;colorBackground=noColor:noColor;html=1;whiteSpace=wrap;metaEdit=1;strokeWidth=1;collapsible=0;recursiveResize=0;expand=0;fontFamily=IBM Plex Sans;fontColor=#000000;fontSize=14;image=;verticalAlign=middle;align=left;spacing=0;spacingLeft=12;spacingRight=16;spacingTop=0;spacingBottom=0;container=1" parent="miscdiagram_SykydLGtF_113dyQYPbHiLp" vertex="1">
                        <mxGeometry x="216" y="262" width="184" height="64" as="geometry"/>
                    </mxCell>
                </UserObject>
                <UserObject placeholders="1" label="IBM IAM Operator" Icon-Name="cube" _id="userobject_3alaD8Y9qzN" id="miscdiagram_SykydLGtF_203dyQYPbis97">
                    <mxCell style="shape=mxgraph.ibm2mondrian.base;shapeType=lg;shapeLayout=expanded;colorFamily=green;colorBackground=noColor:noColor;html=1;whiteSpace=wrap;metaEdit=1;strokeWidth=1;collapsible=0;recursiveResize=0;expand=0;fontFamily=IBM Plex Sans;fontColor=#000000;fontSize=14;image=;verticalAlign=middle;align=left;spacing=0;spacingLeft=12;spacingRight=16;spacingTop=0;spacingBottom=0;container=1" parent="miscdiagram_SykydLGtF_113dyQYPbHiLp" vertex="1">
                        <mxGeometry x="24" y="120" width="184" height="64" as="geometry"/>
                    </mxCell>
                </UserObject>
            </root>
        </mxGraphModel>
    </diagram>
</mxfile>